<svg width="40" height="25" viewBox="0 0 40 25" fill="none"
    xmlns="http://www.w3.org/2000/svg">
  <rect x="0.5" y="0.5" width="39" height="24" rx="1.5" fill="white"
      stroke="#E3E3E3"/>
  <rect x="10.5" y="3" width="19" height="19" fill="white"/>
  <path
      d="M26.1104 7.6626L26.7184 6.0096H29.5V3H10.5V22H29.5V18.998H26.878L25.909 17.8656L24.902 18.998H17.454V12.9636H14.9954L18.0696 6.0096H21.0602L21.7822 7.5866V6.0096H25.4948L26.1142 7.6626H26.1104ZM24.0128 8.757L24.0052 8.092L24.2598 8.757L25.4948 12.0554H26.7222L27.9648 8.757L28.2042 8.0996V12.0592H29.4962V6.9938H27.3492L26.3726 9.5664L26.1142 10.2618L25.8482 9.5664L24.8678 6.9938H22.7208V12.0592H24.0128V8.7608V8.757ZM21.2312 12.0554H22.7208L20.4902 6.99H18.7612L16.5192 12.0554H17.9898L18.3812 11.0788H20.8398L21.2312 12.0554ZM19.3578 8.7038L19.6124 8.0692L19.867 8.7038L20.3914 9.9844H18.8334L19.3578 8.7038ZM18.4914 12.9674V18.0138H22.7208V16.9194H19.7834V16.0378H22.6638V14.9472H19.7834V14.0618H22.7208V12.9674H18.4914ZM27.429 18.0138H29.1086L26.7412 15.4792L29.1086 12.9636H27.4556L25.928 14.6052L24.408 12.9636H22.7246L25.0882 15.4982L22.7246 18.0138H24.3586L25.8976 16.3684L27.429 18.0138ZM28.0674 15.4754L29.5 16.9308V14.0352L28.0674 15.4716V15.4754Z"
      fill="#006FCF"/>
</svg>
