<svg width="40" height="24" viewBox="0 0 40 24" fill="none"
    xmlns="http://www.w3.org/2000/svg">
  <rect x="0.5" y="0.5" width="39" height="23" rx="2.5" fill="#192854"
      stroke="#DADCE0"/>
  <rect x="11" y="3" width="18" height="18" fill="white"/>
  <path
      d="M25.7888 7.4172L26.3648 5.8512H29V3H11V21H29V18.156H26.516L25.598 17.0832L24.644 18.156H17.588V12.4392H15.2588L18.1712 5.8512H21.0044L21.6884 7.3452V5.8512H25.2056L25.7924 7.4172H25.7888ZM23.8016 8.454L23.7944 7.824L24.0356 8.454L25.2056 11.5788H26.3684L27.5456 8.454L27.7724 7.8312V11.5824H28.9964V6.7836H26.9624L26.0372 9.2208L25.7924 9.8796L25.5404 9.2208L24.6116 6.7836H22.5776V11.5824H23.8016V8.4576V8.454ZM21.1664 11.5788H22.5776L20.4644 6.78H18.8264L16.7024 11.5788H18.0956L18.4664 10.6536H20.7956L21.1664 11.5788ZM19.3916 8.4036L19.6328 7.8024L19.874 8.4036L20.3708 9.6168H18.8948L19.3916 8.4036ZM18.5708 12.4428V17.2236H22.5776V16.1868H19.7948V15.3516H22.5236V14.3184H19.7948V13.4796H22.5776V12.4428H18.5708ZM27.038 17.2236H28.6292L26.3864 14.8224L28.6292 12.4392H27.0632L25.616 13.9944L24.176 12.4392H22.5812L24.8204 14.8404L22.5812 17.2236H24.1292L25.5872 15.6648L27.038 17.2236ZM27.6428 14.8188L29 16.1976V13.4544L27.6428 14.8152V14.8188Z"
      fill="#006FCF"/>
</svg>
