<svg width="40" height="25" viewBox="0 0 40 25" fill="none"
    xmlns="http://www.w3.org/2000/svg">
  <rect x="0.5" y="0.5" width="39" height="24" rx="1.5" fill="white"
      stroke="#E3E3E3"/>
  <path d="M23.4717 5.81738H16.0342V19.1828H23.4717V5.81738Z" fill="#FF5F00"/>
  <path
      d="M16.5063 12.5C16.5051 11.2128 16.7968 9.94223 17.3592 8.78444C17.9217 7.62665 18.7402 6.612 19.7528 5.8173C18.4988 4.83169 16.9929 4.21875 15.4071 4.04855C13.8213 3.87834 12.2196 4.15773 10.7851 4.85479C9.35053 5.55185 8.14106 6.63846 7.29489 7.9904C6.44872 9.34235 6 10.9051 6 12.5C6 14.0949 6.44872 15.6577 7.29489 17.0096C8.14106 18.3615 9.35053 19.4482 10.7851 20.1452C12.2196 20.8423 13.8213 21.1217 15.4071 20.9515C16.9929 20.7812 18.4988 20.1683 19.7528 19.1827C18.7402 18.388 17.9217 17.3733 17.3592 16.2155C16.7968 15.0578 16.5051 13.7872 16.5063 12.5Z"
      fill="#EB001B"/>
  <path
      d="M33.5053 12.5C33.5053 14.0949 33.0566 15.6576 32.2105 17.0096C31.3644 18.3615 30.155 19.4481 28.7205 20.1452C27.286 20.8423 25.6843 21.1217 24.0985 20.9515C22.5127 20.7812 21.0068 20.1683 19.7529 19.1827C20.7646 18.3872 21.5825 17.3724 22.1448 16.2148C22.7072 15.0572 22.9994 13.787 22.9994 12.5C22.9994 11.213 22.7072 9.94284 22.1448 8.78523C21.5825 7.62762 20.7646 6.6128 19.7529 5.8173C21.0068 4.83169 22.5127 4.21875 24.0985 4.04854C25.6843 3.87834 27.286 4.15774 28.7205 4.85481C30.155 5.55188 31.3644 6.63848 32.2105 7.99043C33.0566 9.34237 33.5053 10.9051 33.5053 12.5Z"
      fill="#F79E1B"/>
  <path
      d="M32.6941 17.7672V17.4935H32.8044V17.4378H32.5234V17.4935H32.6338V17.7672H32.6941ZM33.2396 17.7672V17.4373H33.1535L33.0544 17.6642L32.9553 17.4373H32.8692V17.7672H32.93V17.5183L33.0229 17.7329H33.086L33.1789 17.5178V17.7672H33.2396Z"
      fill="#F79E1B"/>
</svg>
