<svg width="40" height="24" viewBox="0 0 40 24" fill="none" xmlns="http://www.w3.org/2000/svg">
<g clip-path="url(#clip0_1428_62392)">
<rect x="0.5" y="0.5" width="39" height="23" rx="2.5" fill="#141413" stroke="#DADCE0"/>
<path d="M22.9206 6.75867H17.0873V17.2413H22.9206V6.75867Z" fill="#FF5F00"/>
<path d="M17.4577 12C17.4568 10.9905 17.6856 9.99395 18.1267 9.08588C18.5679 8.17781 19.2098 7.382 20.004 6.75871C19.0205 5.98568 17.8394 5.50494 16.5956 5.37145C15.3519 5.23795 14.0956 5.45708 12.9705 6.0038C11.8454 6.55051 10.8968 7.40275 10.2331 8.4631C9.56947 9.52345 9.21753 10.7491 9.21753 12C9.21753 13.251 9.56947 14.4766 10.2331 15.537C10.8968 16.5973 11.8454 17.4496 12.9705 17.9963C14.0956 18.543 15.3519 18.7621 16.5956 18.6286C17.8394 18.4951 19.0205 18.0144 20.004 17.2414C19.2098 16.6181 18.5679 15.8223 18.1267 14.9142C17.6856 14.0061 17.4568 13.0096 17.4577 12Z" fill="#EB001B"/>
<path d="M30.7902 12C30.7902 13.2509 30.4383 14.4766 29.7747 15.537C29.1111 16.5973 28.1625 17.4496 27.0374 17.9963C25.9123 18.543 24.6561 18.7621 23.4123 18.6286C22.1686 18.4951 20.9875 18.0144 20.004 17.2414C20.7975 16.6174 21.439 15.8215 21.88 14.9136C22.3211 14.0057 22.5503 13.0094 22.5503 12C22.5503 10.9906 22.3211 9.99442 21.88 9.08649C21.439 8.17857 20.7975 7.38263 20.004 6.75871C20.9875 5.98568 22.1686 5.50494 23.4123 5.37145C24.6561 5.23795 25.9123 5.45709 27.0374 6.00381C28.1625 6.55053 29.1111 7.40277 29.7747 8.46312C30.4383 9.52347 30.7902 10.7491 30.7902 12Z" fill="#F79E1B"/>
<path d="M30.1541 16.1311V15.9165H30.2407V15.8727H30.0203V15.9165H30.1068V16.1311H30.1541ZM30.582 16.1311V15.8723H30.5144L30.4367 16.0503L30.359 15.8723H30.2914V16.1311H30.3391V15.9359L30.412 16.1042H30.4615L30.5343 15.9355V16.1311H30.582Z" fill="#F79E1B"/>
</g>
<defs>
<clipPath id="clip0_1428_62392">
<rect width="40" height="24" fill="white"/>
</clipPath>
</defs>
</svg>
