<svg width="40" height="24" viewBox="0 0 40 24" fill="none"
    xmlns="http://www.w3.org/2000/svg">
  <rect x=".5" y=".5" width="39" height="23" rx="2.5" fill="#141413"
      stroke="#DADCE0"/>
  <path d="M22.92 6.759h-5.833V17.24h5.834V6.76z" fill="#FF5F00"/>
  <path
      d="M17.458 12a6.653 6.653 0 012.546-5.241 6.666 6.666 0 100 10.482A6.656 6.656 0 0117.458 12z"
      fill="#EB001B"/>
  <path
      d="M30.79 12a6.667 6.667 0 01-10.786 5.241 6.668 6.668 0 000-10.482A6.666 6.666 0 0130.79 12zm-.636 4.131v-.215h.087v-.043h-.22v.043h.086v.215h.047zm.428 0v-.259h-.067l-.078.178-.078-.178h-.068v.26h.048v-.196l.073.168h.05l.072-.168v.195h.048z"
      fill="#F79E1B"/>
</svg>