<svg width="40" height="25" viewBox="0 0 40 25" fill="none"
    xmlns="http://www.w3.org/2000/svg">
  <rect x="0.5" y="0.5" width="39" height="24" rx="1.5" fill="white"
      stroke="#E3E3E3"/>
  <path fill-rule="evenodd" clip-rule="evenodd"
      d="M19.6469 7.1947L17.4011 17.8332H14.6854L16.9303 7.1947H19.6469ZM31.0779 14.065L32.5082 10.0688L33.3315 14.065H31.0779ZM34.1087 17.8332H36.6218L34.4303 7.1947H32.1103C31.5887 7.1947 31.1465 7.50123 30.9533 7.97543L26.8772 17.8332H29.7291L30.2973 16.2464H33.782L34.1087 17.8332ZM27.0199 14.3601C27.0303 11.5507 23.186 11.397 23.2127 10.1439C23.2205 9.75961 23.5809 9.35527 24.3646 9.25135C24.7534 9.2007 25.8259 9.15965 27.0441 9.72729L27.5199 7.47245C26.8665 7.23055 26.025 7 24.9801 7C22.2954 7 20.4039 8.44617 20.3875 10.5194C20.3703 12.0476 21.7359 12.9017 22.767 13.4117C23.8249 13.9339 24.1792 14.2693 24.1757 14.7339C24.1697 15.4482 23.3317 15.7618 22.5524 15.774C21.1859 15.7976 20.3927 15.402 19.7591 15.1042L19.2685 17.4332C19.9022 17.7302 21.0729 17.986 22.2903 18C25.1431 18 27.0087 16.5722 27.0199 14.3601ZM11.3661 17.8332H8.49349L6.32696 9.34213C6.19505 8.8199 6.07953 8.62865 5.68036 8.40858C5.02687 8.04878 3.94834 7.71169 3 7.50123L3.0638 7.1947H7.6874C8.27796 7.1947 8.80644 7.5903 8.94094 8.27933L10.0841 14.4352L12.9119 7.1947H15.7664L11.3661 17.8332Z"
      fill="#1434CB"/>
</svg>
